<?xml version="1.0" standalone="no"?>
<!DOCTYPE svg PUBLIC "-//W3C//DTD SVG 20010904//EN"
 "http://www.w3.org/TR/2001/REC-SVG-20010904/DTD/svg10.dtd">
<svg version="1.0" xmlns="http://www.w3.org/2000/svg"
 width="750.000000pt" height="750.000000pt" viewBox="0 0 750.000000 750.000000"
 preserveAspectRatio="xMidYMid meet">
<metadata>
Created by potrace 1.14, written by Peter Selinger 2001-2017
</metadata>
<g transform="translate(0.000000,750.000000) scale(0.100000,-0.100000)"
fill="#000000" stroke="none">
<path d="M3094 7366 c-28 -10 -298 -163 -489 -276 -91 -55 -97 -58 -277 -161
-73 -42 -252 -145 -398 -229 -146 -84 -339 -195 -430 -247 -183 -105 -205
-122 -219 -167 -6 -19 -9 -803 -8 -2058 l2 -2027 21 -28 c12 -15 48 -43 80
-61 99 -57 130 -74 394 -227 140 -82 269 -156 285 -165 168 -97 826 -478 915
-530 63 -37 136 -79 162 -93 26 -15 143 -82 260 -150 229 -133 661 -382 718
-414 19 -11 148 -85 285 -165 476 -275 429 -251 483 -245 38 4 109 41 387 202
452 262 651 377 705 407 25 14 68 39 96 55 27 17 70 42 95 55 142 81 491 283
517 299 11 7 29 29 40 48 19 35 20 63 19 1066 0 811 -2 1035 -12 1055 -21 40
-50 61 -235 167 -96 55 -249 143 -340 195 -91 53 -181 105 -200 115 -36 21
-190 111 -225 131 -11 7 -175 102 -365 211 l-345 199 -2 977 -2 977 -22 33
c-17 25 -221 147 -908 543 -584 337 -898 513 -921 515 -19 3 -49 -1 -66 -7z
m368 -487 c172 -100 329 -190 348 -201 19 -11 107 -62 195 -113 88 -51 181
-104 207 -119 26 -14 98 -56 160 -92 62 -37 129 -76 148 -86 19 -11 39 -23 43
-27 4 -5 -162 -106 -370 -226 -736 -426 -809 -468 -928 -537 -135 -78 -115
-77 -225 -12 -57 34 -234 135 -280 161 -19 11 -82 48 -138 82 -57 33 -106 61
-108 61 -3 0 -33 17 -67 39 -54 33 -209 123 -317 184 -19 10 -39 23 -45 27 -5
4 -35 21 -65 37 -48 27 -300 172 -308 178 -2 2 23 17 55 35 32 18 72 41 88 50
17 10 260 150 540 312 693 401 739 428 747 428 3 0 147 -82 320 -181z m-1698
-1011 c93 -54 170 -98 172 -98 2 0 32 -17 66 -38 35 -21 88 -52 118 -69 57
-31 570 -328 673 -390 l58 -35 -253 -145 c-139 -79 -271 -155 -293 -167 -22
-13 -91 -53 -153 -90 -62 -36 -132 -77 -155 -90 -23 -13 -82 -47 -132 -76 -49
-29 -108 -62 -130 -75 -22 -12 -68 -39 -102 -58 -35 -20 -64 -33 -66 -29 -3 4
-4 336 -4 739 0 662 2 731 16 725 9 -3 92 -50 185 -104z m2957 80 c3 -150 0
-1440 -3 -1443 -2 -3 -83 41 -179 96 -96 56 -349 203 -564 326 -214 124 -412
239 -440 255 -27 16 -60 34 -72 40 -13 6 -23 14 -23 17 0 5 205 126 349 206
20 11 65 38 101 59 36 21 85 50 110 64 161 91 687 396 695 403 17 16 25 9 26
-23z m-1724 -1703 c0 -657 -2 -735 -16 -730 -8 3 -281 160 -605 347 -325 188
-608 351 -629 363 l-37 22 217 125 c120 69 234 135 253 146 19 11 150 86 290
167 408 236 513 295 521 295 3 0 6 -331 6 -735z m517 614 c116 -67 248 -144
292 -170 45 -27 85 -49 89 -49 4 0 19 -8 33 -19 15 -10 47 -29 72 -43 25 -14
86 -49 135 -78 50 -29 110 -64 135 -78 103 -58 286 -164 292 -171 4 -4 -278
-172 -628 -374 -350 -202 -638 -366 -641 -364 -9 10 -8 1467 1 1467 6 0 105
-55 220 -121z m-1453 -1155 c244 -141 469 -271 499 -288 161 -90 280 -161 280
-166 0 -7 -21 -20 -140 -88 -52 -30 -108 -62 -125 -72 -82 -48 -406 -235 -445
-258 -25 -13 -85 -48 -135 -77 -49 -29 -106 -62 -125 -73 -19 -11 -94 -54
-167 -96 -73 -42 -134 -76 -136 -76 -2 0 -3 333 -3 739 l0 740 27 -14 c15 -8
226 -130 470 -271z m2657 -824 l-3 -370 -340 196 c-187 108 -443 256 -570 329
-126 73 -252 145 -280 160 -94 52 -93 51 -49 77 21 13 309 179 639 369 l600
347 3 -369 c1 -203 1 -536 0 -739z m1105 646 c131 -75 254 -146 273 -156 19
-11 50 -29 70 -40 33 -19 46 -27 110 -66 25 -15 25 -16 -188 -138 -298 -172
-665 -383 -783 -451 -55 -32 -120 -69 -144 -83 -25 -14 -67 -38 -93 -53 -27
-16 -50 -29 -51 -29 -3 0 -1 1473 2 1477 1 2 205 -115 804 -461z m-2828 -1271
c0 -404 -3 -735 -7 -735 -7 0 -1258 718 -1271 730 -5 4 4 14 20 22 25 13 254
145 293 169 8 5 103 59 210 121 107 61 220 126 250 143 30 18 143 83 250 145
107 62 204 119 215 126 11 8 24 14 30 14 7 0 10 -237 10 -735z m447 654 c78
-45 155 -89 172 -99 17 -9 72 -41 121 -70 50 -29 108 -62 130 -75 22 -12 96
-55 165 -95 69 -40 150 -86 180 -103 30 -16 66 -38 80 -47 14 -10 45 -28 70
-41 119 -65 211 -122 203 -129 -6 -6 -685 -399 -833 -482 -19 -11 -124 -72
-232 -134 -109 -63 -200 -114 -203 -114 -3 0 -5 331 -5 735 0 404 3 735 6 735
3 0 69 -36 146 -81z m3004 -654 c0 -411 -3 -735 -8 -735 -5 0 -66 33 -136 74
-70 41 -284 165 -477 276 -605 349 -665 384 -662 386 2 2 420 245 477 277 19
11 76 43 125 72 50 29 106 62 125 73 19 11 148 85 285 165 138 80 255 146 261
146 7 1 10 -221 10 -734z m-1724 -995 c0 -402 -2 -733 -4 -735 -2 -2 -67 32
-143 76 -123 71 -188 108 -325 187 -19 11 -91 52 -160 92 -69 40 -145 84 -170
98 -25 14 -62 36 -82 49 -21 12 -40 23 -42 23 -2 0 -71 39 -153 88 -81 48
-161 93 -176 101 -15 8 -24 18 -20 22 5 5 247 146 538 315 292 169 575 333
630 365 55 31 101 56 103 54 2 -2 4 -333 4 -735z m409 675 c61 -36 113 -65
116 -65 2 0 32 -17 66 -39 34 -21 268 -157 520 -302 251 -145 457 -267 457
-270 0 -5 -257 -156 -470 -277 -112 -63 -427 -245 -435 -252 -5 -4 -35 -21
-65 -37 -30 -17 -110 -62 -177 -102 -68 -39 -125 -71 -127 -71 -2 0 -4 333 -4
740 0 407 2 740 4 740 1 0 53 -29 115 -65z"/>
</g>
</svg>
